<?xml version="1.0" encoding="UTF-8"?>
<svg width="32" height="32" viewBox="0 0 32 32" fill="none" xmlns="http://www.w3.org/2000/svg">
  <circle cx="16" cy="16" r="16" fill="#2563EB"/>
  <path d="M16 8C12.6863 8 10 10.6863 10 14C10 15.7652 10.8036 17.3486 12.1069 18.4239C10.8372 19.4409 10 21.0305 10 22.8V24H22V22.8C22 21.0305 21.1628 19.4409 19.8931 18.4239C21.1964 17.3486 22 15.7652 22 14C22 10.6863 19.3137 8 16 8ZM16 10C18.2091 10 20 11.7909 20 14C20 16.2091 18.2091 18 16 18C13.7909 18 12 16.2091 12 14C12 11.7909 13.7909 10 16 10ZM13.5 20H18.5C19.8807 20 21 21.1193 21 22.5V23H11V22.5C11 21.1193 12.1193 20 13.5 20Z" fill="white"/>
</svg>